<?xml version="1.0" encoding="utf-8"?>
<!DOCTYPE svg PUBLIC "-//W3C//DTD SVG 1.1//EN" "http://www.w3.org/Graphics/SVG/1.1/DTD/svg11.dtd">
<svg version="1.1" id="Layer_1" xmlns="http://www.w3.org/2000/svg" xmlns:xlink="http://www.w3.org/1999/xlink" x="0px" y="0px"
	 viewBox="43.9888 26.3011 1469.0112 1888.2992" enable-background="new 43.9888 26.3011 1469.0112 1888.2992" xml:space="preserve"
	>
<g id="_x23_ffffffff">
	<path fill="#FFFFFF" stroke="#FFFFFF" stroke-width="0.0938" d="M1093.1801,1040.09c0.6699,0.02,2.0099,0.0701,2.6699,0.0901
		c1.12,2.49,1.37,5.2799,0.4401,7.88C1093.1899,1046.53,1092.72,1043.16,1093.1801,1040.09z"/>
	<path fill="#FFFFFF" stroke="#FFFFFF" stroke-width="0.0938" d="M135.51,1239.9301c0.15-1.78,1.95-1.5,3.21-1.6101
		c0.46,1.14,0.89,2.3,1.28,3.5C138.27,1241.89,136.05,1242.03,135.51,1239.9301z"/>
</g>
<g id="_x23_000000ff">
	<path stroke="#000000" stroke-width="0.0938" d="M579.61,82.57c6.52-4.03,14.14-5.7,21.59-7.05c9.16-1.35,19.09-1.67,27.57,2.59
		c5.52,2.8,10.17,8.45,10.3,14.78c-4.1,22.06-4.39,44.65-2.82,66.98c1.17,5.45,4.04,10.41,6.54,15.34
		c4.89,5.46,8.87,11.79,14.62,16.43c2.52,2.12,4.51,4.83,7.26,6.69c4.57,3.4,10.3,6.01,12.77,11.48
		c-7.35,4.57-16.55,3.77-24.07,7.85c1.74,5.97,4.2,13.93-1.55,18.55c6.8,13.67,15.44,26.41,21.28,40.58
		c1.62,3.5-1.52,7.39-4.78,8.57c-3.46,1.73-7.74,1.13-11.08,2.85c-4.75,7.08-1.33,16.88-6.79,23.76c1,2.52,2.32,5.04,2.38,7.81
		c-1.92,3.28-5.26,5.59-6.83,9.16c2.87,6.91,3.81,14.75,1.86,22.03c-1.38,4.87-4.74,9.76-9.89,11.02
		c-11.28,1.96-21.6299-6.9-32.89-3.63c-0.04,3.22,1.03,6.31,2.17,9.28c6.77,4.92,14.91,8.14,20.52,14.57
		c1.49,1.49,2.45,3.91,4.85,4.08c19.08,3.96,37.71,10,57.01,12.93c1.99,0.33,4.03,0.51,5.99,1.09c5.15,3.02,8.56,8.63,14.45,10.48
		c1.57,0.71,3.77,0.71,4.51,2.58c14.35,24.99,29.62,49.47,43.1,74.97c1.51,2.91,3.24,5.78,3.98,9.02
		c2.61,10.75,5.47,21.44,7.95,32.22c0.43,1.99,1.18,3.9,2.13,5.71c6.17,12.1,11.95,24.41,17.03,37c1.66,5.95,0.48,12.42,2.65,18.29
		c15.42,33.78,21.22,70.77,31.81,106.13c1.21,7.86-0.35,16.02,1.51,23.84c1.99,6.67,5.95,12.51,8.64,18.88
		c0.29,6.9,0.47,13.9,2.44,20.59c3.39,13.33,11.96,24.33,19.66,35.4c0.96,7.81,1.69,15.7,3.71,23.35
		c5.1,20.95,15.4,40.15,21.15,60.9c9.36,22.32,17.66,45.11,27.94,67.05c1.39,3.19,3.33,6.15,4.4399,9.47
		c0.7,5.12,1.6801,10.2,2.72,15.28c14.8,5.58,28.71,13.29,43.69,18.42c5.08,1.62,5.42,8.56,9.87,10.84
		c21.34-1.13,42.67-2.87,64.03-3.9c16.46-0.57,33.01-0.27,49.36-2.56c3.61-0.39,6.71-2.38,10.02-3.69
		c8.1899-1.38,16.6899-1.02,24.63,1.5c13.71-2.06,27.8099-0.4,41.36-3.67c6.02-1.37,11.59-5.16,14.0399-10.99
		c5.9-0.76,11.8501-0.59,17.79-0.55c0.13,3.3,0.21,6.64,0.9,9.9c10.3,1.07,19.37-5.74,29.65-4.93c0.38,6.91,0.49,13.83,1.14,20.73
		c49.36-1.84,98.7699-3.15,148.0599-6.66c35.1-1.7599,70.79-3.3199,105.36,4.27c-2.23,1.79-5.0399,2.5-7.6599,3.48
		c-21.13,7.3701-43.4601,10.34-65.65,12.31c-23.8,2.05-47.7001,2.57-71.52,4.3101c-35.97,2.45-71.87,5.9399-107.91,7.24
		c-0.61,7.12-1.33,15.71,4.42,21.0699c2.79-1.2999,4.74-4.47,7.97-4.6899c4.2,0.02,5.16,5.61,3.4401,8.61
		c-3.4801,4.9299-10.92,5.5699-16.04,3.1c-7.58-5.8099-8.27-16.29-9.04-25.0499c-38.76-1.3601-77.38,3.0599-116.0699,4.33
		c1.5599,6.6,4.72,13.65,1.5599,20.3099c-7.9-2.7699-11.84-12.5299-8.99-20.23c-41.16,1.86-82.29,4.8201-123.5,4.89
		c-0.95,9.05-1.95,19.09-8.42,26.08c-3.65,3.4601-9.25,6.5-14.26,4.29c-3-1.25-5.38-3.52-7.84-5.5499
		c-4.92,5.6599-12.95,8.5499-20.29,6.6899c-2.84-0.71-4.88-2.92-6.47-5.23c-6.42,6.6799-20.33,6.9299-24.22-2.58
		c-4.96,3.1399-12.34,5.5299-17.05,0.6699c-3.11-4.3199-2.15-10.1699-4.72-14.77c-2.15,0.39-4.68,0.67-5.92,2.74
		c-3.85,5.77-0.89,13.7301-4.62,19.4c-28.41,21.7001-59.62,39.4601-91.49,55.55c5.4,32.71,12.26,65.1699,17.68,97.87
		c2.49,15.08,1.47,31.49,9.81,44.96c-0.93,15.14-1.54,30.75,3.03,45.42c1.24,4.35,3.57,8.24,6.04,11.99
		c0.46,4.73,0.38,9.59,2.02,14.14c1.09,4.12,3.67,7.6599,4.97,11.6899c0.54,13.63,0.28,27.3401,1.9901,40.91
		c0.43,5.36,2.1299,10.54,2.8,15.85c-2.06,10.89-3.28,21.96-2.94,33.0601c0.7,6.2999-8.16,8.7-7.14,14.9399
		c0.67,11.3301,0.99,22.86-1.48,34.02c-0.9,3.59-0.18,7.3101-0.16,10.98c1.73,50.34-3.58,100.78,0.67,151.0701
		c0.0699,5.22,4.73,8.76,5.74,13.73c3.69,15.5399,7.51,31.1,12.97,46.14c0.49,1.35,1.02,2.83,2.32,3.7
		c4.92,3.77,8.94,8.83,14.73,11.37c2.4,0.88,2.71,3.85,4.42,5.52c2.82,2.89,6.5,5.15,8.04,9.08c8.82,1.17,13.19,10.66,21.98,11.9301
		c0.26,1.6,0.5,3.23,0.81,4.87c16.7,1.78,32.62,7.95,47.29,15.9299c3.67,5.6801,5.18,12.77,5.63,19.53c3,1.29,6.26,2.01,9.13,3.64
		c1.47,0.58,1.14,2.23,1.24,3.53c0.07,2.86-0.45,5.71-1.1,8.51c-20.75,5.59-40.68,14.23-61.96,17.7999
		c-18,3-37.05,0.2201-52.98-8.86c-12.68-7.01-23.27-18.3199-37.92-21.2999c-5.78-2-10.94,3.1599-16.72,1.85
		c-20.61-2.55-41.81-5.74-60.32-15.7001c-2.11-6.1899-5.63-11.74-8.02-17.7999c-2.03-5.42-1.78-11.3301-0.82-16.9401
		c0.97-0.49,1.96-0.9399,2.97-1.36c-2.48-5.03-6.22-12.6899-0.75-17.0399c-3.12-8.02-1.2-16.91,1.61-24.7201
		c1.24-3.96,4.38-7.1899,4.54-11.48c2.01-15.3099,6.25-31.01,2.46-46.38c-2.21-12.1-2.15-24.7999-6.93-36.2999
		c-2.58-4.7001-1.39-10.26-2.71-15.29c-1.28-5.29-1.8-10.74-3.07-15.99c-8.62-18.9301-9.16-40.38-17.6-59.36
		c-4.94-8.53-2.52-19.1801-7.04-27.9c-1.5-2.36-1.16-5.2-1.3701-7.8201c-0.34-6.1599-2.84-11.8799-4.04-17.86
		c-1.39-6.75-9.62-8.96-11.36-15.51c-6.54-20.63-7.34-42.4099-10.58-63.6699c-0.79-4.5701-0.86-9.4501-3.24-13.5701
		c-2.49-4.47-5.23-9.1-5.39-14.36c-0.13-3.1599,2.14-5.63,3.79-8.0699c-2.91-4.13-6.9901-7.87-7.71-13.12
		c-1.22-7.17,5.44-13.28,3.44-20.48c-2.39-10.92-12.85-17.6801-15.56-28.4601c-1.21-3.6599-0.37-7.6699-1.82-11.24
		c-7.86-18.9299-11.99-39.12-18.72-58.4399c-4.85-14.1801-11.31-28.24-21.98-39.01c-16.59,5.59-32.37,13.38-49.14,18.48
		c-10.97,17.17-14.9,37.7-24.25,55.71c-2.12,4.65-5.43,8.62-7.89,13.05c-2.25,12.39-2.94,25.02-3.37,37.6
		c-0.31,4.39-0.12,8.86-1.11,13.1901c-2.41,10.97-9.04,20.45-11.61,31.38c-2.27,9.1699-1.52,18.97-5.17,27.8199
		c-1.19,1.9,0.06,3.9399,0.51,5.88c2.15,7.02,1.55,14.51,0.12,21.61c-1.95,9.5-5.55,18.5601-8.1,27.9
		c-3.71,13.73-3,28.16-5.77,42.0499c-1.53,6.52-9.8,8.55-11.03,15.2301c-6.96,25.97-22.13,48.86-29.08,74.84
		c-2.59,5.5599-6.16,10.66-8.72,16.26c-0.33,1.5699-0.22,3.21-0.27,4.85c0.15,10.1801-7.16,18.78-6.76,29.02
		c0.34,4.49-2.31,8.3099-3.62,12.4399c-9.41,26.7001-10.86,55.42-19.74,82.28c-0.81,2.04,0.06,4.2,0.2,6.3
		c1.18,8.73-1.68,17.2899-2.96,25.7799c5.73,13.7401,5.08,29.03,3.29,43.52c-1.15,8.42-2.31,16.86-3.76,25.25
		c-2.41,6.01-7.75,10.3-13.03,13.77c-4.69,0.96-9.57-0.25-14.32-0.38c-4.57,3.78-3.85,10.2001-6.01,15.1901
		c-6.43,8.96-16.54,14.36-26.57,18.37c-6.08,2.12-12.12,4.89-18.52,5.74c-24.46-2.36-49.88-2.74-72.78-12.72
		c-0.91-5.05,0.26-10.28,4.22-13.7401c-1.85-8.74-2.51-18.11,0.61-26.63c3.33-6.3099,10.96-7.6599,17.32-8.7899
		c9.24-4.78,14.64-14.0801,20.93-21.9501c2.42-2.33,1.19-5.98,2.34-8.84c0.62-2.45,2.77-3.91,4.32-5.71
		c1.8-4.75,3.49-9.5801,5.83-14.09c5.65-8.1001,10.71-16.76,13.53-26.29c3.04-9.53,3.32-19.61,3.11-29.52
		c0.2-9.75-0.28-20.14,4.46-29c1.06-1.8199,0.94-3.99,1.13-5.98c1.59-22.42,7.08-44.51,6.49-67.0701c0.04-4-0.73-7.97-0.49-11.9399
		c0.81-2.73,2.97-5,2.92-7.97c0.63-36.0901,9.19-72.11,4.1-108.2201c-0.54-5.2999-2.8-10.48-1.77-15.85
		c2.67-20.02,6.8-40.27,4.04-60.52c-0.37-1.6899,1.12-2.88,1.82-4.23c3.04-4.6,5.12-10.4099,3.52-15.9
		c-0.52-2.2-1.96-4.08-2.32-6.2799c2.05-11.8401,4.25-23.67,7.38-35.28c1.33-6.42,7.6-9.9301,10.47-15.55
		c1.44-2.12,1-4.76,1.14-7.1499c0.31-21.9501,3.94-43.65,6.56-65.39c-34.14,4.8999-68.41,9.14-102.88,10.99
		c-12.32,0.7899-24.68,0.87-37.01,1.2999c-10.92,2.29-22.21,2.03-33.15,0.03c-11.09-1.9399-22.06-4.76-33.31-5.71
		c-0.09,2.84-0.17,5.7-0.29,8.5599c-2.21,0.16-4.43,0.37-6.64,0.6c0.33-5.71,2.19-13.0199-3.03-17.1499
		c-4.23-0.6001-7.47,2.7799-11.16,4.21c-2.66,1.27-5.66,1.05-8.51,0.89c-5.17-9.37-4.21-20.38-5.74-30.61
		c-2.17-14.37-4.38-28.86-9.35-42.5701c-4.82-13.72-11.21-27.4099-11.28-42.22c0.92-3.67,4.59-5.9299,7.79-7.51
		c13.01-5.45,27.86-2.84,40.9-8.1699c1.45-9.52,0.86-19.39,1.76-29.03c1.86-0.3301,3.71-0.6901,5.55-1.0801
		c-0.01,9.51,0.02,19.03-0.01,28.5601c31.08-4.33,61.93-10.15,92.69-16.3201c11.05-2.3799,22.2-4.33,33.16-7.11
		c-1.07-11.2699,4.79-21.76,4.29-32.98c-3.65-1.98-7.9-1.98-11.73-3.37c-1.69-1.1699-1.92-3.4299-2.61-5.2
		c-7.15-23.23-5.6-47.88-4.77-71.84c0.98-18.31,0.93-36.65,0.28-54.96c-0.38-15.02-0.69-30.08,0.58-45.06
		c1.26-15.32,3.55-30.59,3.58-45.98c-1.27-12.15-4.32-24.03-7.03-35.92c-0.56-2.35,0.03-4.75,0.18-7.1
		c1.11-12.97-0.15-26.02,0.87-38.99c1.23-14.17,7-27.63,7.14-41.92c-1.53-20.25-3.76-40.68-1.13-60.94
		c1.23-9.41,3.58-18.73,7.68-27.31c1.13-2.06,1.02-4.45,1.23-6.71c1.08-19.07,5.18-37.88,11.11-56.01
		c5.06-17.9,15.29-34.29,17.07-53.09c0.01-4.62,2.48-8.6,4.02-12.8c7.68-20.16,12.15-41.42,20.45-61.37
		c0.58-1.36,1.19-2.81,2.48-3.65c6.88-5.28,15.1-8.59,21.59-14.4c1.98-1.7,3.38-3.96,5.33-5.67c13-7.47,28.32-9.51,41.45-16.63
		c15.89-14.15,35.51-23.1,55.14-30.76c2.21-1.06,5.13-1.32,6.49-3.6c6.2-9.39,8.57-21.15,16.72-29.25c1.82-2.02,4.54-2.97,6.33-4.96
		c3.04-12.2,1.4-25.45-4.44-36.58c-1.35-2.92-3.41-5.45-4.67-8.4c1.61-8.8,2.81-17.9,0.88-26.76c-1.5-7.43-4.94-14.43-9.76-20.27
		c-2.15-2.77-5.91-3.21-9.14-3.69c-8.1-1.13-16.57,0.99-24.43-1.67c-2.32-1.68-4.6-3.87-5.74-6.52c0.34-6.17,0.55-12.93,3.71-18.38
		c24.72-22.34,48.24-46.39,76.26-64.72C520.41,113.15,550.52,98.7,579.61,82.57 M715.75,769.94c6,14.69,13.39,28.95,16.89,44.56
		c2.79,4.77,8.34,7.88,9.63,13.62c1.42,3.98-1.98,7.19-2.74,10.87c0.2599,5.48,3.0699,10.39,4.83,15.49
		c1.01,4.42,7.1,4.47,8.34,8.83c11.87,26.55,23.31,53.32,36.95,79.03c8.38,16.68,16.37,33.75,20.98,51.91
		c0.36,5.51-6.79,7.81-6.72,13.4c13.03,1.45,26-1.79,39.03-0.98c2.19,0.35,4.32-2.11,2.16-3.73c-6.15-5.16-14.85-3.15-22.15-4.9
		c-1.24-0.45-1.41-2.0099-2.07-2.96c-10.66-21.96-17.91-45.53-30.36-66.62c-6.33-17.28-13.02-34.46-20.8-51.15
		c-4.16-8.9-7.3799-18.23-9.15-27.89c-7.9-14.22-14.44-29.2-23.03-43.04c-3.36-11.65-4.2-23.98-8.52-35.38
		c-4.46-13.14-1.5-28.71-10.21-40.35C713.58,743.22,720.17,757.15,715.75,769.94 M364.39,822.38c-3.97,8.56-3.55,18.27-4.9,27.42
		c-1.19,4.12-3.61,9.53,0.42,12.89c7.93-12.06,13.22-25.72,16.56-39.71c-0.76-2.29-1.99-5.19-4.61-5.75
		C368.86,817.92,366.46,820.2,364.39,822.38 M351.7,1042.95c1.56,5.65,3.73,11.13,5.46,16.74c1.33,4.67,4.59,8.4,7.29,12.3301
		c1.84-10.53,2.58-21.27,1.72-31.9401c-2.77-1.51-5.89-3-9.13-2.22C354.51,1038.27,351.81,1040.21,351.7,1042.95 M1093.1801,1040.09
		c-0.4601,3.0701,0.0099,6.4401,3.11,7.9701c0.9299-2.6001,0.6799-5.39-0.4401-7.88
		C1095.1899,1040.16,1093.85,1040.11,1093.1801,1040.09 M747.11,1055.7c1.58,15.02,1.79,30.7001,8.1,44.7101
		c15.81-9.11,32.17-17.2201,48.08-26.17c7.4901-4.47,14.39-9.96,22.39-13.5699c5.73-2.5801,11.39-7.2301,11.59-14.03
		C807.27,1050.14,777.17,1052.7,747.11,1055.7 M840.45,1060.4301c-21.7,12.8899-42.98,26.5099-64.82,39.1599
		c-6.32,3.4401-14.74,6.03-16.93,13.76c17.21-3.36,32.47-12.45,47.37-21.25c7.62-4.6799,15.57-8.88,22.7-14.3199
		c4.42-3.3,10.23-4.8101,13.62-9.38c1.83-2.36,1.97-5.47,1.33-8.27C842.59,1060.01,841.49,1060.11,840.45,1060.4301
		 M541.68,1134.9399c0.45,7.63-0.69,15.3201-3.24,22.53c-3.35,9.79-9,18.62-12.13,28.5c13.46-1.9199,25.71-8.14,38.32-12.83
		c-2.76-8.92-4.28-18.14-6.71-27.13c-1.96-7.12-4.64-14.34-9.91-19.7C544.66,1127.77,541.18,1130.97,541.68,1134.9399
		 M271.55,1171.51c-38.58,19.24-78.71,35.11-117.78,53.3099c-3.1,1.8101-8.67,0.55-9.49,5.0601c11.11,4.21,23.14,2.39,34.71,2.97
		c7.66,0.5701,15.35,0.22,23.02,0.4501c23-0.0601,45.98,1.25,68.98,1.35c23.6-0.01,47.44-0.92,70.44-6.66
		c-2.77-20.77,4.77-40.79,6.86-61.21c-4.51,0.86-8.51,4.1799-13.29,3.45c-2.64-0.15-4.54-2.24-6.92-3.1
		c-2.26,0.48-4.11,2.08-6.38,2.5599c-5.33,1.38-10.95-0.3999-15.28-3.5699c-1.91,2.3101-4.16,4.74-7.38,4.89
		c-5.98,1.49-11.11-2.42-15.99-5.16C279.16,1167.62,275.36,1169.5699,271.55,1171.51 M135.51,1239.9301
		c0.54,2.1,2.76,1.96,4.49,1.8899c-0.39-1.2-0.82-2.36-1.28-3.5C137.46,1238.4301,135.66,1238.15,135.51,1239.9301 M160.59,1240.5
		c0.54,1.8199,2.73,1.6,4.19,2.03c21.75,3.8099,43.88,5.8099,65.97,4.9c12.5-0.4401,25.26-0.4501,37.36-4.02
		c-12.69-0.4601-25.4-0.17-38.11-0.24C206.84,1243.35,183.65,1242.66,160.59,1240.5z"/>
</g>
</svg>
